<svg preserveAspectRatio="none" width="100%" height="100%" overflow="visible" style="display: block;" viewBox="0 0 96 96" fill="none" xmlns="http://www.w3.org/2000/svg">
<g id="Link">
<path id="Vector" d="M53.0191 24.256L57.1441 20.131C58.7675 18.5071 60.695 17.2189 62.8164 16.34C64.9378 15.4612 67.2116 15.0088 69.5078 15.0088C71.8041 15.0088 74.0778 15.4612 76.1992 16.34C78.3206 17.2189 80.2481 18.5071 81.8716 20.131C83.4955 21.7545 84.7837 23.682 85.6626 25.8034C86.5415 27.9248 86.9938 30.1985 86.9938 32.4948C86.9938 34.7911 86.5415 37.0648 85.6626 39.1862C84.7837 41.3076 83.4955 43.2351 81.8716 44.8585L72.7291 54.001L68.8516 57.8785C67.2262 59.5042 65.2963 60.7934 63.1722 61.6723C61.0481 62.5513 58.7715 63.0029 56.4727 63.0011C54.1739 62.9994 51.898 62.5444 49.7752 61.6622C47.6525 60.78 45.7245 59.4879 44.1016 57.8598C42.4217 56.1806 41.1028 54.1758 40.2258 51.9684C39.3488 49.7611 38.9322 47.3977 39.0016 45.0235" stroke="var(--stroke-0, #9DA64D)" stroke-width="4.40625" stroke-linecap="round" stroke-linejoin="round"/>
<path id="Vector_2" d="M42.981 71.7448L38.856 75.8698C37.2306 77.4954 35.3007 78.7846 33.1765 79.6636C31.0524 80.5426 28.7759 80.9941 26.4771 80.9924C24.1783 80.9906 21.9024 80.5356 19.7796 79.6534C17.6568 78.7712 15.7289 77.4791 14.106 75.851C10.8359 72.5696 9.00165 68.1246 9.00587 63.492C9.01009 58.8594 10.8524 54.4178 14.1285 51.1423L27.1485 38.1223C28.7719 36.4983 30.6994 35.2101 32.8208 34.3313C34.9422 33.4524 37.216 33 39.5122 33C41.8085 33 44.0822 33.4524 46.2036 34.3313C48.325 35.2101 50.2525 36.4983 51.876 38.1223C53.5627 39.8014 54.8875 41.8083 55.7685 44.0193C56.6496 46.2302 57.0681 48.5983 56.9985 50.9773" stroke="var(--stroke-0, #9DA64D)" stroke-width="4.40625" stroke-linecap="round" stroke-linejoin="round"/>
</g>
</svg>
